<svg xmlns="http://www.w3.org/2000/svg" width="16" height="16" fill="none" xmlns:v="https://vecta.io/nano"><path fill="#fff" d="M0 0h16v16H0z"/><g fill="#e00202"><path d="M7.535 13.279V7.074c0-.403-.085-.75-.256-1.043s-.384-.439-.641-.439v-.403c.085-.012.75-.384 1.995-1.117.085.024.189.061.311.11.122.037.281.153.476.348.207.195.311.421.311.677l.622-.348c.903-.513 1.44-.769 1.611-.769.391 0 .757.256 1.098.769s.513.982.513 1.409v5.546c0 .671.299 1.068.897 1.19v.403l-1.995 1.117c-.269-.11-.519-.287-.751-.531-.232-.256-.348-.494-.348-.714V7.971c0-.683-.079-1.202-.238-1.556a.8.8 0 0 0-.805-.549l-.604.11v5.839c0 .744.25 1.165.75 1.263v.403l-1.849 1.043c-.268-.11-.519-.287-.75-.531-.232-.256-.348-.494-.348-.714z"/><path d="M4.605 1.476c.295 0 .758.715 1.391 2.144s.949 2.417.949 2.963v4.993a1.52 1.52 0 0 0 .196.737.78.78 0 0 0 .589.409v.36c-.076.011-.671.344-1.784.999a2.22 2.22 0 0 1-.688-.475c-.196-.218-.295-.42-.295-.606-1.168.72-1.85 1.08-2.046 1.08-.076 0-.224-.082-.442-.245-.207-.175-.42-.42-.638-.737-.207-.327-.311-.66-.311-.999V6.256c0-.109.922-.486 2.766-1.129-.393-.862-.709-1.468-.949-1.817s-.475-.524-.704-.524H2.1v-.491c1.211-.546 2.046-.818 2.504-.818zm-.278 11.098c.207 0 .42-.087.638-.262V6.616c0-.065-.049-.202-.147-.409-.087-.218-.153-.327-.196-.327-.316 0-.638.098-.966.295l-.164.098v5.091c0 .808.278 1.211.835 1.211z"/></g></svg>