<svg
  xmlns="http://www.w3.org/2000/svg"
  width="62"
  height="33"
  fill="none"
  xmlns:v="https://vecta.io/nano">
  <path
    fill-rule="evenodd"
    d="M6.571 3.72c-.798-1.802-1.382-2.703-1.754-2.703-.578 0-1.63.344-3.157 1.032v.619h.681c.289 0 .585.22.887.66s.701 1.204 1.197 2.29C2.101 6.429.938 6.904.938 7.041v7.365c0 .426.131.846.392 1.259.275.399.543.708.805.928.275.206.461.309.557.309.248 0 1.107-.454 2.579-1.362 0 .234.124.488.371.763a2.8 2.8 0 0 0 .867.598l2.249-1.259v-.454c-.316-.041-.564-.213-.743-.516-.165-.303-.248-.612-.248-.928V7.454c0-.688-.399-1.932-1.197-3.734zm-1.3 10.955c-.275.22-.543.33-.805.33-.701 0-1.052-.509-1.052-1.527V7.062l.206-.124c.413-.248.818-.371 1.217-.371.055 0 .138.138.248.413.124.261.186.433.186.516v7.18zm47.782-6.169V15.5c0 .248.131.516.392.805.261.275.543.475.846.598l2.084-1.176v-.454c-.564-.11-.846-.585-.846-1.424V7.268l.681-.124a.9.9 0 0 1 .908.619c.179.399.268.983.268 1.754V15.5c0 .248.131.516.392.805.261.275.543.475.846.598l2.249-1.259v-.454c-.674-.137-1.011-.585-1.011-1.341V7.598c0-.481-.192-1.011-.578-1.589s-.798-.867-1.238-.867c-.193 0-.798.289-1.816.867l-.702.392c0-.289-.117-.543-.351-.763-.22-.22-.399-.351-.536-.392l-.351-.124-2.249 1.259v.454c.289 0 .529.165.722.495s.289.722.289 1.176zm-28.968 6.723v3.363h1.177l-.231 1.131h-.946v8.259c0 .938.315 1.469.946 1.592v.508l-2.33 1.315c-.338-.139-.654-.361-.946-.669-.292-.323-.438-.623-.438-.9V19.746h-.946l.231-.969c.461 0 1.015-.308 1.661-.923.476-.453.812-1.247 1.009-1.919l-1.716.969c-.303-.124-.585-.323-.846-.598-.261-.289-.392-.557-.392-.805V8.506c0-.454-.096-.846-.289-1.176s-.433-.495-.722-.495v-.454c.096-.014.846-.433 2.249-1.259a3.75 3.75 0 0 1 .351.124c.137.041.316.172.536.392.234.22.351.475.351.763l.701-.392c1.018-.578 1.623-.867 1.816-.867.44 0 .853.289 1.238.867s.578 1.107.578 1.589v6.251c0 .756.337 1.204 1.011 1.341v.454l-2.249 1.259c-.303-.124-.584-.323-.846-.598-.261-.289-.392-.557-.392-.805V9.517c0-.77-.089-1.355-.268-1.754a.9.9 0 0 0-.908-.619l-.681.124v6.581c0 .754.228 1.214.683 1.379h.608zm9.554 4.274l-.171.237c.245.37.368.733.368 1.09v3.876c0 .277-.408.615-1.223 1.015s-1.607.731-2.376.992l-1.223.369c0 1.184.515 1.915 1.546 2.192.508.123 1.115.184 1.823.184v.669l-4.037 1.269c-.461 0-.93-.323-1.407-.969-.477-.661-.715-1.43-.715-2.307v-7.752c0-.108.877-.485 2.63-1.131l2.942-.985c.591-.696 1.145-1.938 1.543-2.832l.011-.024c-1.554.729-2.448 1.094-2.682 1.094-.426 0-.811-.268-1.155-.805-.344-.55-.516-1.162-.516-1.836V7.062c0-.138.756-.488 2.269-1.052 1.527-.578 2.462-.867 2.806-.867s.722.316 1.135.949a3.64 3.64 0 0 1 .619 2.063v6.561c0 .523-.234 1.265-.702 2.228-.468.977-.963 1.829-1.485 2.558zm-2.871 1.327c.2.292.3.654.3 1.084v1.638c0 1.277-.692 2.107-2.076 2.492v-5.329c.369-.231.707-.346 1.015-.346s.561.154.761.461zm4.491 4.637c.277.584.608.877.992.877.108 0 .584-.184 1.43-.554l1.453-.554c.385 0 .577.346.577 1.038v2.884c0 .215-.069.384-.208.508s-.285.184-.438.184c-.215 0-.5-.454-.854-1.361-.338-.907-.623-1.361-.854-1.361-.077 0-.6.269-1.569.808l-.992.485v.461c.308 0 .561.184.761.554.169.277.338.615.508 1.015l.415.9c.108.185.215.277.323.277.261 0 1.269-.354 3.022-1.061 1.769-.723 2.653-1.23 2.653-1.523v-2.607c0-.923-.146-1.676-.438-2.261-.277-.6-.6-.9-.969-.9-.184 0-.723.2-1.615.6l-1.43.6c-.277 0-.415-.308-.415-.923v-2.838c0-.461.138-.692.415-.692.215 0 .454.377.715 1.13.277.754.531 1.13.761 1.13.077 0 .608-.269 1.592-.807l.969-.485v-.461c-.308 0-.561-.185-.761-.554l-.346-.577-.277-.508a5.24 5.24 0 0 0-.254-.392c-.108-.169-.231-.254-.369-.254-.246 0-1.177.361-2.791 1.084-1.615.707-2.422 1.207-2.422 1.5v2.492c0 .846.138 1.561.415 2.146zm-23.486-5.099v7.659c0 .923.238 1.715.715 2.376.492.661.923.992 1.292.992.384 0 1.415-.323 3.091-.969 1.692-.661 2.538-1.054 2.538-1.177v-8.351c0-.508-.269-1.077-.808-1.707-.523-.631-.915-.946-1.177-.946s-1.269.331-3.022.992c-1.753.646-2.63 1.023-2.63 1.131zm4.845 8.536c-.308.246-.608.369-.9.369-.784 0-1.177-.569-1.177-1.707v-6.829c.292-.231.592-.346.9-.346.784 0 1.177.569 1.177 1.707v6.806zm-14.55.923v-7.821c0-.508-.108-.946-.323-1.315s-.484-.554-.807-.554v-.508c.108-.015.946-.484 2.515-1.407.108.031.238.077.392.138.154.046.354.192.6.438.261.246.392.531.392.854l.784-.438c1.138-.646 1.815-.969 2.03-.969.492 0 .954.323 1.384.969s.646 1.238.646 1.776v6.99c0 .846.377 1.346 1.13 1.5v.508l-2.515 1.407c-.338-.139-.654-.361-.946-.669-.292-.323-.438-.623-.438-.9v-6.69c0-.861-.1-1.515-.3-1.961-.185-.461-.523-.692-1.015-.692l-.761.139v7.359c0 .938.315 1.469.946 1.592v.508l-2.33 1.315c-.338-.139-.654-.361-.946-.669-.292-.323-.438-.623-.438-.9zm42.285-15.937v-6.85c0-.096.784-.433 2.352-1.011l2.703-.887c.234 0 .585.282 1.052.846.481.564.722 1.073.722 1.527v7.469c0 .11-.756.461-2.269 1.052-1.499.578-2.421.866-2.765.866-.33 0-.715-.296-1.155-.887-.426-.591-.64-1.3-.64-2.125zm3.528 1.114c.261 0 .529-.11.805-.33V8.589c0-1.018-.351-1.527-1.052-1.527-.275 0-.543.103-.805.309v6.107c0 1.018.351 1.527 1.052 1.527zm-5.626-9.532c-.275-.22-.447-.33-.516-.33-.234 0-1.135.296-2.703.887-1.568.578-2.352.915-2.352 1.011v6.932c0 .784.213 1.472.64 2.063.426.578.846.866 1.259.866.151 0 1.355-.378 3.61-1.135v-.598c-.633 0-1.176-.055-1.63-.165-.922-.247-1.382-.901-1.382-1.96.055 0 .419-.11 1.093-.33a17.99 17.99 0 0 0 2.125-.887c.729-.358 1.093-.66 1.093-.908V7.454c0-.358-.138-.722-.413-1.093-.275-.385-.55-.681-.825-.887zM40.75 7.454c.179.261.268.585.268.97v1.465c0 1.142-.619 1.884-1.857 2.228V7.351c.33-.206.633-.309.908-.309s.502.138.681.413zm-7.4 1.403c0-1.21-.316-1.816-.949-1.816a1.42 1.42 0 0 0-.908.33v4.745c0 .963.151 1.609.454 1.939.303.316.77.475 1.403.475V8.857zm-20.246 4.828c0 .358.103.653.309.887.22.22.461.33.722.33s.536-.103.825-.309V8.176c0-.839-.282-1.314-.846-1.424v-.454l2.084-1.176c.303.124.585.33.846.619.261.275.392.536.392.784v6.994c0 .454.096.846.289 1.176s.433.495.722.495v.454c-.096.014-.846.433-2.249 1.259a2.8 2.8 0 0 1-.867-.598c-.248-.275-.371-.536-.371-.784l-2.579 1.382c-.041-.028-.103-.062-.186-.103l-.433-.309a4.56 4.56 0 0 1-.516-.516c-.413-.454-.619-.97-.619-1.547V8.176c0-.756-.337-1.204-1.011-1.341v-.454l2.249-1.259c.302.124.584.33.846.619.261.275.392.536.392.784v7.159z"
    fill="#e00202"/>
  </svg>